<svg width="107" height="40" viewBox="0 0 107 40" fill="none" xmlns="http://www.w3.org/2000/svg">
<path d="M15.7118 0.529091C8.66786 2.03852 3.1333 7.06997 0.768536 14.0888C0.164766 15.9002 0.0892948 16.4788 0.0892948 19.875C0.0641377 23.9505 0.441494 25.8121 1.87545 28.68C4.11443 33.1077 8.51692 37.1077 12.8943 38.6171C16.1898 39.7744 17.4728 39.875 28.8942 39.875H39.6866V37.4851V35.0951H36.2652H32.8438L34.1268 33.6863C38.6803 28.7052 40.5167 22.3656 39.2337 16.1266C36.9696 5.23349 26.4036 -1.76022 15.7118 0.529091ZM24.1395 5.66116C28.8942 7.12029 33.0451 11.5228 34.2778 16.353C34.7558 18.2649 34.7558 21.7366 34.2778 23.6486C33.3973 27.0951 30.5294 30.9693 27.5608 32.7807C18.6552 38.114 7.23391 33.0322 5.0704 22.7681C3.73707 16.4788 7.10812 9.63601 13.02 6.66745C14.4288 5.96305 16.4917 5.28381 17.9257 5.05739C19.3093 4.85613 22.5294 5.15802 24.1395 5.66116Z" fill="white"/>
<path d="M10.0002 20.0015V28.5549H10.8807H11.7612V24.9071C11.7612 22.8945 11.7864 21.2593 11.8367 21.2593C11.8619 21.2593 12.4405 21.5361 13.1197 21.8883C15.1323 22.8945 17.2455 22.6178 19.0316 21.1084L19.9876 20.2782L20.4656 20.8065C21.17 21.5864 23.3335 22.5172 24.4907 22.5172C25.0945 22.5172 26.0253 22.2656 26.7549 21.8883C27.4341 21.5361 28.0127 21.2593 28.063 21.2593C28.0882 21.2593 28.1133 22.9197 28.1133 24.9323V28.5801L29.0693 28.5046L30.0001 28.4291V20.0015V11.5738H29.1196C28.3398 11.5738 28.2391 11.6493 28.1133 12.3285C28.0127 12.8316 27.9121 12.9826 27.7863 12.7562C27.4341 12.2027 25.7737 11.6744 24.4153 11.6744C22.9058 11.6744 21.6983 12.1776 20.692 13.209L19.9876 13.9386L19.5348 13.3348C18.2015 11.6744 14.931 11.1461 12.8933 12.3033L11.7612 12.9323V12.1776C11.7612 11.4983 11.6858 11.448 10.8807 11.448H10.0002V20.0015ZM16.9184 13.7122C20.4656 15.4228 19.2329 20.7562 15.2832 20.7562C12.4656 20.7562 10.9311 17.9386 12.2392 15.0706C13.0443 13.3096 14.9562 12.7562 16.9184 13.7122ZM26.3523 13.6618C27.4593 14.1901 28.1133 15.4732 28.1133 17.0581C28.1133 19.2971 26.8555 20.7562 24.9184 20.7562C22.453 20.7562 21.0694 19.3977 21.0694 16.9323C21.0694 15.7499 21.1951 15.3725 21.7486 14.6933C22.9813 13.2342 24.7423 12.8316 26.3523 13.6618Z" fill="white"/>
<path d="M100.316 10.3144C100.316 11.2703 100.24 11.4464 99.8128 11.4464C99.5109 11.4464 99.3097 11.6225 99.3097 11.849C99.3097 12.1257 99.1839 12.2012 98.882 12.0754C96.4166 11.0691 93.2971 11.9244 92.1147 13.9622C91.8632 14.3647 91.5864 14.7169 91.511 14.7169C91.4355 14.6917 91.0833 14.2641 90.7311 13.7358C88.5676 10.6163 83.3349 11.0942 81.5236 14.5659L81.1462 15.3207L80.7689 14.4402C80.3412 13.4087 79.5613 12.5282 78.6054 12.0251C77.6494 11.5471 75.6368 11.5471 74.6305 12.0502C73.6243 12.5534 73.6494 12.5534 73.6494 11.9496C73.6494 11.5471 73.4733 11.4464 72.7689 11.4464H71.8884V16.981V22.5156H72.7438H73.6243L73.6997 18.6163C73.7752 14.8175 73.8004 14.7169 74.4293 14.0628C75.8632 12.6288 78.4293 13.2578 79.1085 15.22C79.2846 15.7232 79.4104 17.5093 79.4104 19.2955L79.4356 22.5156H80.3161H81.1965V20.7295V18.9181L81.8506 19.8993C83.3349 22.088 85.5739 22.9433 88.0141 22.2641C88.8946 22.0125 91.0078 20.4276 91.0078 19.9747C91.0078 19.8741 90.6808 19.5974 90.2783 19.371C89.5487 19.0188 89.4984 19.0188 88.8443 19.6225C87.989 20.4276 87.2846 20.6037 85.7751 20.4276C84.8443 20.3269 84.4418 20.1257 83.7877 19.3961C83.3349 18.893 82.9575 18.3898 82.9575 18.2389C82.9575 18.088 84.467 17.9873 87.0833 17.9873H91.1839L91.6116 19.1194C92.6682 21.8364 96.0644 23.2452 98.7059 22.0376C100.064 21.4087 100.165 21.2074 99.4606 20.5282C98.9575 20.0502 98.7562 19.9999 98.3034 20.2515C96.7436 21.0817 94.1776 20.2515 93.4229 18.6414C91.9386 15.5219 95.2845 12.2766 98.3285 13.8364C98.9826 14.1886 99.0832 14.1886 99.209 13.8364C99.2845 13.6351 99.5864 13.459 99.8379 13.459C100.291 13.459 100.316 13.6854 100.316 16.5282C100.316 19.9496 100.593 20.9056 101.901 21.8615C102.756 22.4905 105.02 22.5911 105.674 22.0376C106.052 21.7358 106.052 21.6603 105.574 20.981C105.146 20.3521 104.995 20.3018 104.417 20.5282C103.612 20.8301 102.681 20.3018 102.329 19.3458C102.178 18.9936 102.077 17.5345 102.077 16.0754V13.459H103.234H104.366L104.291 12.503C104.215 11.5974 104.19 11.5722 103.159 11.4968L102.077 11.4213V10.2892C102.077 9.18229 102.077 9.18229 101.196 9.18229C100.316 9.18229 100.316 9.18229 100.316 10.3144ZM88.9198 14.5408C89.3726 15.0439 89.75 15.5722 89.75 15.7232C89.75 15.8741 88.4921 15.9747 86.3538 15.9747H82.9324L83.3349 15.22C83.989 13.9873 85.1211 13.4087 86.706 13.5345C87.8883 13.61 88.1902 13.7609 88.9198 14.5408Z" fill="white"/>
<path d="M46.9062 11.7986C43.4094 12.7546 41.7993 17.1068 43.8622 20.0754C44.7427 21.3584 46.8559 22.5156 48.2898 22.5156C49.1452 22.5156 51.7615 21.6351 51.7615 21.3332C51.7615 21.2829 51.5099 20.9056 51.2332 20.503C50.7049 19.8238 50.6546 19.7986 50.1012 20.176C49.271 20.7043 47.3087 20.654 46.5288 20.0754C44.2396 18.3647 44.2144 15.5219 46.4534 14.0376C47.4597 13.3584 48.9188 13.2829 50.0005 13.8364C50.7049 14.1886 50.7301 14.1886 51.2584 13.459L51.7867 12.7295L51.2081 12.3521C50.7301 12.0502 48.6924 11.4213 48.2395 11.4716C48.1641 11.4716 47.5854 11.6225 46.9062 11.7986Z" fill="white"/>
<path d="M55.4847 11.7986C51.2583 12.9307 49.925 18.0125 53.12 20.9559C54.8306 22.5156 56.9941 22.9433 58.9312 22.0376C60.0885 21.5093 61.3966 20.2012 61.8746 19.1194C62.1765 18.415 62.2017 18.4905 62.2771 20.4276L62.3526 22.5156H63.2079H64.0884V18.7672C64.0884 15.0942 64.1136 14.9936 64.7425 14.2389C65.5224 13.2829 66.7048 13.0313 67.9375 13.5345C69.3966 14.1634 69.623 14.9181 69.623 18.9936V22.5156H70.6293H71.6356V19.1697C71.6356 15.4968 71.4092 14.3395 70.5035 13.2578C69.2205 11.7483 66.5538 11.1949 64.8683 12.0754C64.1136 12.4527 64.0884 12.4527 64.0884 11.9496C64.0884 11.5471 63.9123 11.4464 63.2079 11.4464H62.3274V13.6351L62.3023 15.849L61.774 14.8427C61.0444 13.4087 60.1388 12.503 58.9564 12.1005C57.3212 11.5219 56.7426 11.4716 55.4847 11.7986ZM58.8809 14.1131C59.8117 14.8175 60.3149 15.7986 60.3149 16.981C60.3149 19.7735 57.5728 21.4339 55.0822 20.1508C52.6671 18.893 52.6671 15.0942 55.1074 13.8615C56.1388 13.3332 58.0004 13.459 58.8809 14.1131Z" fill="white"/>
</svg>
